<?xml version="1.0" standalone="no"?>
<!DOCTYPE svg PUBLIC "-//W3C//DTD SVG 20010904//EN"
 "http://www.w3.org/TR/2001/REC-SVG-20010904/DTD/svg10.dtd">
<svg version="1.0" xmlns="http://www.w3.org/2000/svg"
 width="1280.000000pt" height="1217.000000pt" viewBox="0 0 1280.000000 1217.000000"
 preserveAspectRatio="xMidYMid meet">
<metadata>
Created by potrace 1.15, written by Peter Selinger 2001-2017
</metadata>
<g transform="translate(0.000000,1217.000000) scale(0.100000,-0.100000)"
fill="#000000" stroke="none">
<path d="M5313 10298 l-1081 -1872 -509 -108 c-279 -59 -753 -160 -1053 -224
-300 -63 -680 -144 -845 -179 -165 -35 -588 -125 -940 -200 -352 -74 -695
-147 -763 -162 -67 -14 -121 -30 -120 -35 3 -8 176 -201 1911 -2127 538 -596
977 -1090 977 -1098 0 -7 -101 -975 -225 -2150 -124 -1175 -223 -2138 -221
-2141 3 -2 892 391 1975 873 1344 598 1978 876 1993 873 13 -3 904 -398 1981
-878 1077 -480 1960 -870 1963 -868 2 3 -97 966 -221 2141 -124 1175 -225
2143 -225 2150 0 8 210 247 468 533 257 285 896 996 1421 1579 525 583 965
1072 979 1087 14 15 24 30 21 32 -2 2 -420 93 -929 201 -804 171 -2274 483
-3054 649 l-248 52 -1081 1872 c-595 1030 -1084 1872 -1087 1872 -3 0 -492
-842 -1087 -1872z m2166 -27 c589 -1019 1071 -1857 1071 -1862 0 -4 -482 -670
-1070 -1480 -589 -810 -1068 -1474 -1066 -1476 3 -3 3448 1113 6101 1977 132
43 241 77 243 75 2 -2 -164 -189 -370 -417 -205 -228 -852 -946 -1438 -1596
-761 -846 -1069 -1181 -1080 -1177 -15 6 -520 171 -2475 806 -539 175 -981
316 -983 314 -2 -1 650 -902 1449 -2002 2139 -2942 2454 -3377 2463 -3390 4
-8 2 -11 -6 -8 -7 3 -890 396 -1963 874 l-1950 868 -5 1834 c-6 2056 -2 8525
4 8518 3 -2 486 -838 1075 -1858z m-2161 -3338 c590 -812 1071 -1478 1068
-1480 -2 -2 -1321 424 -2932 947 -1611 524 -3035 986 -3164 1027 -129 42 -238
79 -242 82 -5 4 4124 891 4192 900 3 0 488 -664 1078 -1476z m1072 -1498 c0
-3 -761 -1053 -1692 -2333 -930 -1280 -1813 -2495 -1962 -2699 -148 -205 -271
-371 -271 -370 -2 2 439 4197 447 4255 3 22 99 55 1478 503 811 263 1590 517
1730 563 270 89 270 89 270 81z"/>
</g>
</svg>
